<svg width="20" height="20" viewBox="0 0 20 20" fill="none" xmlns="http://www.w3.org/2000/svg">
<path d="M19.9943 3.17781C19.9481 2.38626 19.6006 1.61068 19.0415 1.05029L18.9053 0.914032C18.3175 0.324516 17.5446 0 16.73 0C15.9596 0 15.2412 0.294758 14.7065 0.83071L2.16869 13.3985C1.20087 14.3683 0.207122 18.3088 0.0177469 19.0888C-0.0338157 19.3018 0.0286843 19.5258 0.18306 19.6805L0.318997 19.8164C0.437435 19.9358 0.597123 20 0.760873 20C0.80556 20 0.85056 19.9956 0.895248 19.9853C1.68931 19.8102 5.69932 18.8871 6.6715 17.9126L19.2106 5.34511C19.7656 4.7888 20.044 4.01917 19.9943 3.17781ZM14.3462 4.66945C14.4071 4.73054 14.4871 4.76123 14.5671 4.76123C14.6471 4.76123 14.7271 4.73054 14.7881 4.66945L15.7306 3.72473L16.3231 4.31831L5.38963 15.2776L4.79744 14.684L13.8837 5.57659C14.0059 5.45412 14.0059 5.25615 13.8837 5.13367C13.7615 5.0112 13.564 5.0112 13.4418 5.13367L4.35556 14.2411L3.72556 13.6093L14.6587 2.65063L15.2887 3.28181L14.3462 4.22653C14.2243 4.34901 14.2243 4.54698 14.3462 4.66945ZM6.46088 16.3514L5.83119 15.7202L16.7646 4.76123L17.3946 5.39241L6.46088 16.3514ZM1.96244 16.8003L3.23963 18.0808C2.64775 18.2584 2.02337 18.4272 1.44119 18.571C1.59525 17.9978 1.77494 17.3829 1.96244 16.8003ZM3.91244 17.8693L2.18462 16.1371C2.49431 15.2535 2.80775 14.5293 3.05244 14.2843L3.28369 14.0525L4.13431 14.9052L4.13525 14.9061L6.019 16.7946L5.78775 17.0264C5.54432 17.2704 4.81025 17.574 3.91244 17.8693ZM18.3265 4.45864L17.8365 4.9498L15.9521 3.06097L15.1009 2.20802L15.5909 1.71686C15.8893 1.41772 16.294 1.25327 16.7303 1.25327C17.2112 1.25327 17.67 1.44748 18.0218 1.80018L18.1578 1.93644C18.5037 2.28257 18.7181 2.76214 18.7468 3.25173C18.7746 3.73005 18.6256 4.15887 18.3265 4.45864Z" fill="white"/>
</svg>
