<svg width="25" height="25" viewBox="0 0 25 25" fill="none" xmlns="http://www.w3.org/2000/svg">
<path d="M13.7097 11.2903V1.20968C13.7097 0.888855 13.5823 0.581161 13.3553 0.354306C13.1285 0.127451 12.8208 0 12.5 0C12.1792 0 11.8715 0.127451 11.6447 0.354306C11.4177 0.581161 11.2903 0.888855 11.2903 1.20968V11.2903H1.20968C0.888855 11.2903 0.581161 11.4177 0.354306 11.6447C0.127451 11.8715 0 12.1792 0 12.5C0 12.8208 0.127451 13.1285 0.354306 13.3553C0.581161 13.5823 0.888855 13.7097 1.20968 13.7097H11.2903V23.7903C11.2945 24.1098 11.4232 24.4152 11.6492 24.6411C11.8752 24.8671 12.1805 24.9958 12.5 25C12.8208 25 13.1285 24.8726 13.3553 24.6456C13.5823 24.4189 13.7097 24.1111 13.7097 23.7903V13.7097H23.7903C24.1111 13.7097 24.4189 13.5823 24.6456 13.3553C24.8726 13.1285 25 12.8208 25 12.5C24.9958 12.1805 24.8671 11.8752 24.6411 11.6492C24.4152 11.4232 24.1098 11.2945 23.7903 11.2903H13.7097Z" fill="white"/>
</svg>
